<svg xmlns="http://www.w3.org/2000/svg" width="64" height="64" fill="none"><g clip-path="url(#a)"><rect width="64" height="64" fill="#F4FAFF" rx="32"/><ellipse cx="27.75" cy="28.88" fill="#fff" rx="14.32" ry="13.03"/><ellipse cx="2.74" cy="2.83" fill="#000" rx="2.74" ry="2.83" transform="rotate(5.45 -200.05 210.97) skewX(.34)"/><ellipse cx="33.91" cy="28.89" fill="#000" rx="2.94" ry="2.97"/><path fill="#72BDF8" fill-rule="evenodd" d="M26.65 12.42s-5.83-8.44-7.67-7.37c-.38.25-.57 1.67-.85 3.76-.46 3.48-1.17 8.8-3.42 13.6l-.68 1.45-.45.97c-3.55 7.58-8.17 17.43-8.99 25.08C3 64.81 8.75 76.14 14.95 88.34a822.4 822.4 0 0 1 1.58 3.12 4.75 4.75 0 0 0 4.17 2.42h.6c2.14 0 .96-2.8.59-3.68l-.1-.22c-1.57-4.33-2-8.02-2.51-12.32-.13-1.09-.26-2.21-.42-3.4.74.88 1.52 1.72 2.35 2.52 1.09 5.15 2.65 10.15 4.48 14.94a3.32 3.32 0 0 0 3.1 2.16h.68c1.23 0 2.1-1.24 1.8-2.47a64.93 64.93 0 0 1-1.61-8.7 32 32 0 0 0 10.38 3.02C53.3 87.25 65.6 80.37 71.97 69.2c.16-.26.3-.53.44-.8l.04-.07.08-.18a14.34 14.34 0 0 0 1.32-8.2c-.36-2.74 7.56-7.56 15.27-12.25 9.78-5.95 19.2-11.68 10.83-12.65l-3.55-.45c-8.05-1.08-16.1-2.15-24.43 3.35-.8 1.7-1.6 3.2-2.37 4.5-.38 6.65-5.72 11.92-12.25 11.92-6.77 0-12.26-5.67-12.26-12.67 0-2.25.56-4.36 1.56-6.2a91.23 91.23 0 0 1 4.87-9.88c2.04-3.74 3.64-6.68 3.05-7.38-1.25-1.5-6.74-.44-10.19.22-.64.12-1.2.23-1.66.3a16.15 16.15 0 0 0-11.19-6.54c-1.67-.2-3.3-.12-4.88.2Zm-6.5 15.8c2.62 1.21 5.53.36 6.5-1.9.96-2.25-.4-5.05-3.02-6.25a5.44 5.44 0 0 0-4.57-.08 3.9 3.9 0 0 0-1.94 1.99c-.96 2.25.39 5.05 3.02 6.25Zm19.31 4.18c-1.02 2.37-4.07 3.26-6.82 2-2.74-1.26-4.14-4.2-3.12-6.57a4.11 4.11 0 0 1 2.03-2.09 5.67 5.67 0 0 1 4.79.09c2.74 1.26 4.14 4.2 3.12 6.57Z" clip-rule="evenodd"/><path fill="#000" fill-rule="evenodd" d="m24 30.66-.05.63.05-.63h.04a3.76 3.76 0 0 1 .44.07 5.95 5.95 0 0 1 2.56 1.21l.02.03h.01l-.36.48.36-.48c.27.22.32.62.1.9a.6.6 0 0 1-.86.1l-.02-.01a4.14 4.14 0 0 0-.6-.42c-.28.58-.3.99-.24 1.25.06.29.23.48.45.59.23.11.51.13.74.05a.68.68 0 0 0 .45-.48c.1-.34.44-.54.77-.44.32.1.51.46.42.8-.2.68-.69 1.13-1.24 1.32-.54.2-1.16.15-1.67-.1a2.08 2.08 0 0 1-1.08-1.27c-.35.19-.73.25-1.1.2a2.06 2.06 0 0 1-1.27-.7 1.8 1.8 0 0 1-.46-1.41.62.62 0 0 1 .7-.54c.34.05.57.37.52.72 0 .08.02.23.16.38.13.16.32.26.5.29.18.02.39-.02.6-.22.18-.17.37-.46.54-.94a4.76 4.76 0 0 0-.57-.1l-.01-.01a.63.63 0 0 1-.57-.69.62.62 0 0 1 .67-.58Z" clip-rule="evenodd"/></g><defs><clipPath id="a"><rect width="64" height="64" fill="#fff" rx="32"/></clipPath></defs></svg>