<svg preserveAspectRatio="none" viewBox="0 0 750 675" fill="none" xmlns="http://www.w3.org/2000/svg">
<ellipse cx="177.678" cy="181.465" rx="108.604" ry="98.7858" fill="white"/>
<ellipse class="eye" cx="130.465" cy="137.465" rx="20.7913" ry="21.4694" fill="black"/>
<ellipse class="eye" cx="224.4" cy="181.465" rx="22.2991" ry="22.5489" fill="black"/>
<path fill-rule="evenodd" clip-rule="evenodd" d="M169.349 56.5754C169.349 56.5754 125.087 -7.37348 111.195 0.705804C108.291 2.58163 106.845 13.3933 104.723 29.2632C101.199 55.6115 95.8102 95.903 78.7872 132.393C77.087 136.037 75.3703 139.705 73.6436 143.394L73.6394 143.403C72.5106 145.815 71.3637 148.262 70.2018 150.741C43.273 208.191 8.25168 282.906 2.04126 340.918C-10.058 453.939 33.6139 539.845 80.6348 632.338C84.6136 640.165 88.6163 648.039 92.6113 655.98C98.3649 667.417 111.746 674.32 124.222 674.32H128.695C144.957 674.32 136.048 653.18 133.205 646.432C132.899 645.708 132.664 645.149 132.537 644.8C120.594 611.954 117.286 583.936 113.437 551.329C112.464 543.088 111.456 534.554 110.266 525.574C115.871 532.241 121.808 538.614 128.054 544.664C136.328 583.716 148.165 621.633 162.055 657.974C165.854 667.912 175.215 674.32 185.557 674.32L190.685 674.32C200.038 674.32 206.701 664.926 204.29 655.591C198.72 634.029 194.738 612.019 192.117 589.644C216.32 601.416 242.786 609.329 270.86 612.537C371.508 624.039 464.77 571.871 512.998 487.184C514.183 485.193 515.307 483.156 516.368 481.076L516.607 480.627C516.856 480.16 517.077 479.704 517.273 479.259C522.609 468.281 526.181 456.155 527.565 443.23C528.519 434.311 528.377 425.527 527.249 417.024C524.494 396.259 584.604 359.698 643.024 324.164C717.222 279.033 788.695 235.56 725.188 228.213C716.206 227.174 707.23 225.976 698.252 224.778C637.225 216.634 576.144 208.482 512.998 250.186C506.945 263.123 500.934 274.445 495.013 284.354C492.152 334.769 451.674 374.742 402.16 374.742C350.789 374.742 309.145 331.716 309.145 278.64C309.145 261.59 313.443 245.577 320.98 231.695C330.831 206.477 345.471 179.591 357.938 156.695C373.384 128.328 385.495 106.085 381.036 100.727C371.596 89.3824 329.932 97.3821 303.785 102.402C298.955 103.33 294.654 104.156 291.184 104.739C271.398 77.8579 241.395 59.0818 206.342 55.0761C193.673 53.6284 181.241 54.2122 169.349 56.5754ZM119.962 176.494C139.911 185.596 162.002 179.128 169.304 162.046C176.605 144.964 166.352 123.737 146.403 114.635C134.396 109.156 121.613 109.318 111.745 114.04C105.219 117.164 99.9681 122.282 97.0613 129.083C89.7597 146.164 100.013 167.391 119.962 176.494ZM266.498 208.123C258.767 226.08 235.614 232.877 214.783 223.304C193.952 213.731 183.333 191.414 191.064 173.457C194.141 166.308 199.663 160.928 206.51 157.646C216.861 152.683 230.24 152.514 242.778 158.276C263.609 167.849 274.228 190.166 266.498 208.123Z" fill="black"/>
<path fill-rule="evenodd" clip-rule="evenodd" d="M149.22 194.923L148.836 199.738C149.22 194.923 149.221 194.923 149.221 194.923L149.227 194.923L149.236 194.924L149.26 194.926L149.328 194.933C149.383 194.938 149.457 194.945 149.548 194.955C149.729 194.975 149.981 195.005 150.295 195.048C150.921 195.133 151.798 195.27 152.856 195.484C154.96 195.908 157.841 196.645 160.919 197.904C164.062 199.19 166.964 200.949 169.024 202.332C170.069 203.033 170.93 203.659 171.536 204.115C171.84 204.344 172.081 204.531 172.252 204.665C172.337 204.732 172.404 204.786 172.453 204.825L172.512 204.872L172.531 204.887L172.537 204.893L172.541 204.896C172.542 204.896 172.542 204.897 169.816 208.464L172.542 204.897C174.569 206.55 174.915 209.589 173.315 211.683C171.716 213.776 168.777 214.135 166.75 212.485L166.747 212.482L166.746 212.482L166.721 212.461C166.695 212.44 166.65 212.405 166.589 212.356C166.466 212.26 166.277 212.113 166.03 211.927C165.534 211.554 164.811 211.028 163.929 210.436C163.337 210.039 162.687 209.621 161.998 209.206C159.948 213.585 159.776 216.691 160.198 218.674C160.656 220.828 161.937 222.281 163.621 223.113C165.394 223.989 167.515 224.109 169.258 223.495C170.892 222.921 172.131 221.75 172.668 219.847C173.392 217.285 175.988 215.814 178.468 216.562C180.947 217.309 182.371 219.991 181.648 222.553C180.171 227.786 176.486 231.161 172.273 232.643C168.169 234.087 163.52 233.775 159.586 231.832C155.951 230.036 152.855 226.798 151.453 222.252C148.759 223.661 145.898 224.117 143.146 223.766C139.243 223.269 135.793 221.189 133.418 218.432C131.066 215.703 129.41 211.858 129.985 207.712C130.351 205.071 132.721 203.236 135.277 203.615C137.834 203.993 139.61 206.441 139.243 209.083C139.156 209.712 139.376 210.813 140.404 212.006C141.408 213.171 142.842 213.99 144.291 214.175C145.608 214.343 147.161 214.026 148.784 212.499C150.116 211.246 151.615 209.05 152.877 205.382C152.222 205.215 151.613 205.079 151.064 204.968C150.218 204.798 149.532 204.691 149.073 204.629C148.843 204.597 148.672 204.577 148.565 204.566C148.512 204.56 148.475 204.556 148.456 204.554L148.442 204.553C145.873 204.328 143.964 201.998 144.175 199.342C144.387 196.682 146.646 194.704 149.22 194.923Z" fill="black"/>
</svg>
