<svg xmlns="http://www.w3.org/2000/svg" width="78" height="24" fill="none"><path fill="#343633" d="M18.52.01c1.84 0 3.22.48 4.15 1.43.94.94 1.4 2.46 1.4 4.56v8.72a2 2 0 0 1-2 2H20.6V6.62c0-1.25-.24-2.18-.72-2.81-.48-.64-1.22-.95-2.2-.95-1.39 0-2.39.44-3 1.33-.6.88-.9 2.16-.9 3.83v6.7a2 2 0 0 1-2 2h-1.48V6.62c0-.83-.1-1.52-.33-2.07-.2-.57-.52-.99-.96-1.26a2.93 2.93 0 0 0-1.64-.43 3.7 3.7 0 0 0-2.3.65 3.61 3.61 0 0 0-1.21 1.92c-.25.84-.37 1.87-.37 3.1v6.19a2 2 0 0 1-2 2H0V.32h2.7l.5 2.21h.19c.34-.57.75-1.04 1.24-1.4A5.2 5.2 0 0 1 6.31.3 6.48 6.48 0 0 1 8.2 0c1.23 0 2.26.22 3.1.66a4.07 4.07 0 0 1 1.88 1.95h.27A4.71 4.71 0 0 1 15.6.65a6.87 6.87 0 0 1 2.91-.64ZM43.19 8.48c0 1.37-.18 2.57-.54 3.63a6.85 6.85 0 0 1-4.01 4.34c-.96.37-2.04.56-3.24.56a8.26 8.26 0 0 1-3.1-.56 7.06 7.06 0 0 1-2.44-1.66 7.6 7.6 0 0 1-1.58-2.68 10.8 10.8 0 0 1-.56-3.63c0-1.8.3-3.33.93-4.59a6.64 6.64 0 0 1 2.7-2.88 8.3 8.3 0 0 1 4.15-1 7.9 7.9 0 0 1 4 1 6.85 6.85 0 0 1 2.71 2.88c.65 1.27.98 2.8.98 4.6Zm-11.9 0c0 1.2.15 2.22.44 3.07.3.85.75 1.5 1.36 1.95.61.45 1.4.67 2.37.67.97 0 1.76-.22 2.37-.67a3.9 3.9 0 0 0 1.34-1.95c.3-.85.43-1.87.43-3.07 0-1.2-.14-2.2-.43-3.03a3.73 3.73 0 0 0-1.34-1.91 3.96 3.96 0 0 0-2.39-.67c-1.44 0-2.49.49-3.15 1.45-.66.97-1 2.36-1 4.16ZM51.61 24c-2.22 0-3.92-.4-5.1-1.2a3.83 3.83 0 0 1-1.78-3.36c0-1 .31-1.86.94-2.56a5.08 5.08 0 0 1 2.71-1.44c-.44-.2-.83-.5-1.15-.92a2.3 2.3 0 0 1-.48-1.4c0-.61.18-1.14.52-1.57.35-.44.87-.86 1.56-1.26a4.52 4.52 0 0 1-2.08-1.78 5.43 5.43 0 0 1-.77-2.91c0-1.19.26-2.2.76-3.02a4.77 4.77 0 0 1 2.2-1.91 8.37 8.37 0 0 1 4.48-.61 12.07 12.07 0 0 1 1.67.25h5.67v1.94l-2.78.52a4.76 4.76 0 0 1 .87 2.84c0 1.7-.59 3.04-1.76 4.01-1.17.97-2.77 1.45-4.83 1.45-.5-.02-.97-.05-1.43-.11-.36.21-.63.46-.82.72-.19.26-.28.55-.28.88 0 .26.1.48.28.65.19.15.47.27.83.35.38.08.83.12 1.36.12h2.83c1.8 0 3.17.38 4.12 1.14.94.76 1.42 1.88 1.42 3.35 0 1.86-.77 3.3-2.31 4.3C56.72 23.5 54.5 24 51.6 24Zm.13-2.44c1.22 0 2.24-.12 3.07-.36a4.1 4.1 0 0 0 1.88-1.02c.42-.43.64-.95.64-1.55 0-.54-.14-.95-.4-1.23a2.19 2.19 0 0 0-1.2-.6c-.54-.1-1.2-.16-1.99-.16h-2.57c-.65 0-1.21.1-1.7.3-.5.2-.88.5-1.16.89-.27.38-.4.84-.4 1.39 0 .75.33 1.33 1 1.73.66.4 1.61.6 2.83.6Zm.68-12.77c1.02 0 1.78-.27 2.27-.82.5-.57.74-1.36.74-2.37 0-1.1-.26-1.94-.77-2.5-.5-.54-1.25-.82-2.25-.82-.98 0-1.72.28-2.24.84-.5.57-.75 1.4-.75 2.5 0 1 .25 1.78.75 2.35.52.55 1.27.82 2.25.82ZM77.79.33v16.39h-2.74l-.48-2.21h-.19a4.72 4.72 0 0 1-1.32 1.4c-.53.37-1.12.64-1.77.82a7.4 7.4 0 0 1-2.06.28c-1.24 0-2.3-.2-3.17-.62a4.4 4.4 0 0 1-2-1.95 7.28 7.28 0 0 1-.7-3.41V.33h3.5v10.05c0 1.27.26 2.22.77 2.86.52.63 1.33.94 2.43.94 1.05 0 1.9-.21 2.51-.65a3.48 3.48 0 0 0 1.32-1.92c.27-.85.4-1.9.4-3.13V.33h3.5Z"/></svg>